<?xml version="1.0" encoding="UTF-8" standalone="no"?>
<!-- Created with Inkscape (http://www.inkscape.org/) -->

<svg
   width="100"
   height="120"
   viewBox="0 0 100 120"
   version="1.1"
   id="svg1"
   inkscape:version="1.3 (0e150ed6c4, 2023-07-21)"
   sodipodi:docname="footer.svg"
   xmlns:inkscape="http://www.inkscape.org/namespaces/inkscape"
   xmlns:sodipodi="http://sodipodi.sourceforge.net/DTD/sodipodi-0.dtd"
   xmlns="http://www.w3.org/2000/svg"
   xmlns:svg="http://www.w3.org/2000/svg">
  <sodipodi:namedview
     id="namedview1"
     pagecolor="#ffffff"
     bordercolor="#000000"
     borderopacity="0.25"
     inkscape:showpageshadow="2"
     inkscape:pageopacity="0.0"
     inkscape:pagecheckerboard="0"
     inkscape:deskcolor="#d1d1d1"
     inkscape:document-units="px"
     inkscape:zoom="9.4207247"
     inkscape:cx="71.172868"
     inkscape:cy="64.167038"
     inkscape:window-width="2880"
     inkscape:window-height="1514"
     inkscape:window-x="-11"
     inkscape:window-y="-11"
     inkscape:window-maximized="1"
     inkscape:current-layer="layer1" />
  <defs
     id="defs1" />
  <g
     inkscape:label="Laag 1"
     inkscape:groupmode="layer"
     id="layer1">
    <path
         id="path5"
         style="display:inline;fill:#66d668;stroke-width:4.67821"
         d="M 112.20036,120.00016 V 27.12125 h 18.57422 V 6.5118787 h -20.76953 c -3.69162,-0.42576 -5.36026,-2.5467 -6.38867,-4.4668 -1.45331,-2.71338002 -1.64478,-5.00852 -4.511717,-1.47461002 -0.40968,0.50499002 -0.84945,0.98963002 -1.28125,1.48047002 -1.46419,1.66437 -3.02623,3.22211 -4.634768,4.46094 H 81.628098 c -3.8601,-4.02634 -6.075605,-2.47344 -7.730468,0 h -6.101563 c -0.05484,-0.3457 -0.098,-0.71585 -0.123047,-1.12696 -0.35855,-5.88432002 -3.826923,-2.1965 -3.58789,0.08399 0.221693,2.11511 -1.7202,-8.71284 -5.816407,1.04297 h -7.498047 c -0.541627,-1.53177 -1.076043,-3.08329 -1.607422,-4.40039 -1.055638,-2.61655002 -2.110602,-4.26304 -3.24414,-2.69532002 -0.780451,1.0794 -1.217963,1.94511002 -1.53125,2.70313002 -0.97934,2.36958 -0.393331,3.41271 -2.347656,4.39258 h -4.101563 c -0.967448,-1.07225 -1.42555,-3.03675 -2.265625,-4.38282 -0.692511,-1.10962 -1.644594,-1.79948002 -3.378906,-1.19140002 -1.178059,0.41305002 -1.836774,0.80888002 -2.21875,1.19922002 -1.284366,1.31248 0.735594,2.553 -1.84375,4.09375 -1.669024,0.99699 -3.129364,-1.66248 -4.515625,-4.08594 -1.393242,-2.43565002 -2.711956,-4.63442 -4.089844,-2.64453002 -0.750421,1.08374 -1.496156,1.92638002 -2.201172,2.65234002 -1.877529,1.9333 -3.381811,2.88829 -3.294922,4.21875 0.0049,0.0746 -0.02017,0.08462 -0.02344,0.14063 h -0.638672 c -0.830897,-0.78543 -2.307551,-2.87186 -3.6425783,-4.11133 -0.112062,-0.10405 -0.24882,-0.18003 -0.400391,-0.23828 -0.44721,-0.17186 -1.062279,-0.14439 -1.761719,0.00195 -3.328462,0.69674 -8.683282,4.2767 -8.789062,4.34766 H -29.614091 V 27.12125 h 19.31836 v 92.87891 z" />
  </g>
</svg>
