<svg width="100" height="120" xmlns="http://www.w3.org/2000/svg"><g fill="#66d668"><path d="M-24.307 91.606v20.61h20.77c3.692.425 5.36 2.546 6.388 4.466 1.454 2.714 1.646 5.008 4.513 1.474.41-.505.848-.99 1.28-1.481 1.464-1.664 3.027-3.221 4.635-4.46H24.84c3.86 4.026 6.075 2.474 7.73 0h6.102c.055.346.098.715.123 1.126.359 5.885 3.826 2.196 3.587-.084-.222-2.115 1.72 8.714 5.817-1.042h7.499c.541 1.532 1.076 3.082 1.607 4.4 1.056 2.616 2.11 4.263 3.244 2.695.78-1.08 1.217-1.944 1.53-2.702.98-2.37.395-3.413 2.349-4.393h4.101c.968 1.072 1.425 3.036 2.265 4.382.693 1.11 1.646 1.8 3.38 1.193 1.178-.413 1.837-.81 2.22-1.2 1.284-1.312-.737-2.552 1.842-4.093 1.669-.997 3.13 1.662 4.517 4.085 1.393 2.436 2.71 4.634 4.088 2.644a20.392 20.392 0 012.201-2.652c1.878-1.933 3.384-2.887 3.297-4.218-.005-.075.018-.085.022-.14H93c.83.785 2.306 2.87 3.641 4.11.112.104.249.18.4.238.448.172 1.063.144 1.762-.002 3.328-.697 8.684-4.276 8.79-4.347h28.489v-20.61z"/><path d="M-5.732-1.274h122.496V98.824H-5.732z"/></g></svg>