<?xml version="1.0" encoding="UTF-8" standalone="no"?>
<!-- Created with Inkscape (http://www.inkscape.org/) -->

<svg
   width="100"
   height="120"
   viewBox="0 0 100 120"
   version="1.1"
   id="svg1"
   xmlns="http://www.w3.org/2000/svg"
   xmlns:svg="http://www.w3.org/2000/svg">
   <style>
      #layer1 {
      fill: olivedrab;
      }
   </style>
  <defs
     id="defs1" />
  <g
     id="layer1">
    <path
       id="path5"
       style="display:inline"
       d="M -24.307291,91.605821 V 112.2151 h 20.7703458 c 3.69162648,0.42576 5.3599225,2.54699 6.3883385,4.46709 1.4533068,2.71338 1.6455769,5.00774 4.51252,1.47383 0.4096779,-0.50499 0.8480639,-0.99025 1.2798659,-1.48109 1.4641918,-1.66437 3.0271338,-3.221 4.6356698,-4.45983 h 11.560584 c 3.860104,4.02634 6.074914,2.47344 7.729779,0 h 6.102457 c 0.05484,0.3457 0.0981,0.71512 0.123149,1.12623 0.35855,5.88433 3.825739,2.19609 3.586706,-0.0844 -0.221694,-2.11511 1.720367,8.71404 5.816578,-1.04178 h 7.498874 c 0.541628,1.53177 1.076152,3.08211 1.607531,4.39922 1.05564,2.61655 2.11011,4.26361 3.243649,2.69589 0.780452,-1.0794 1.217275,-1.94409 1.530562,-2.70211 0.979341,-2.36958 0.394295,-3.41313 2.348622,-4.393 h 4.10129 c 0.967449,1.07225 1.42498,3.03605 2.265056,4.38212 0.692512,1.10962 1.645679,1.80061 3.379993,1.19253 1.17806,-0.41305 1.836899,-0.80944 2.218876,-1.19978 1.284367,-1.31249 -0.736515,-2.5523 1.842832,-4.09305 1.669026,-0.99699 3.130655,1.66182 4.516918,4.08528 1.393243,2.43565 2.710208,4.63346 4.088097,2.64357 0.750422,-1.08374 1.496266,-1.92539 2.201282,-2.65135 1.877531,-1.9333 3.383317,-2.88795 3.296428,-4.21841 -0.0049,-0.0746 0.01872,-0.0849 0.02199,-0.14091 h 0.639935 c 0.830898,0.78543 2.306653,2.87119 3.641681,4.11066 0.112062,0.10405 0.248663,0.18005 0.400234,0.2383 0.447211,0.17186 1.062022,0.14434 1.761462,-0.002 3.328466,-0.69674 8.683946,-4.27593 8.789726,-4.34689 h 28.48914 V 91.605818 Z" />
    <rect
       style="stroke-width:8.56063"
       id="rect6"
       width="122.49588"
       height="100.09846"
       x="-5.7320433"
       y="-1.2737874" />
  </g>
</svg>
